# xmcd
#
# Track frame offsets:
#	150
#	24805
#	45346
#	67660
#	85337
#	107599
#	125357
#	143654
#	162115
#	186039
#	206325
#	228375
#	244911
#	258833
#	275492
#	293966
#	310141
#	331710
#
# Disc length: 4684 seconds
#
# Revision: 3
# Processed by: cddbd v1.5.2PL0 Copyright (c) Steve Scherf et al.
# Submitted via: EasyCDDAExtractor 15.3.0.1
#
DISCID=e6124a12
DTITLE=Varios Artistas - No. 1 Un Año De Exitos Vol. 2
DYEAR=2002
DGENRE=Latin
TTITLE0=Alejandro Sanz - El Alma Al Aire
TTITLE1=Ricky Martin - She Bangs (Spanish Version)
TTITLE2=Olga Tañon - Como Olvidar (Ballad Version)
TTITLE3=Chayanne - Candela
TTITLE4=Ricardo Arjona - Lo Poco Que Queda De Mi
TTITLE5=Ricardo Montaner - Besame
TTITLE6=Laura Pausini - Quiero Decirte Que Te Amo
TTITLE7=Jennifer Lopez - Que Ironia (Ain't It Funny)
TTITLE8=The Corrs and Alejandro Sanz - Una Noche (Spanish Version Of ''One Night
TTITLE8='')
TTITLE9=Jaci Velasquez - Como Se Cura Una Herida
TTITLE10=La Ley - Mentira
TTITLE11=Cafe Quijano - Nada De Na
TTITLE12=OV7 - Love Colada
TTITLE13=Melina Leon - Corazon De Mujer (Pop Version)
TTITLE14=La Oreja De Van Gogh - La Playa
TTITLE15=Frankie Negron - Comerte A Besos (Ballad Version)
TTITLE16=Carolina Lao - Dulce Veneno (Ballad Version)
TTITLE17=MDO - Te Quise Olvidar
EXTD=YEAR: 2002 ID3G: 86
EXTT0=
EXTT1=
EXTT2=
EXTT3=
EXTT4=
EXTT5=
EXTT6=
EXTT7=
EXTT8=
EXTT9=
EXTT10=
EXTT11=
EXTT12=
EXTT13=
EXTT14=
EXTT15=
EXTT16=
EXTT17=
PLAYORDER=
